<?xml version="1.0" encoding="utf-8"?>
<!-- Generator: Adobe Illustrator 24.0.3, SVG Export Plug-In . SVG Version: 6.00 Build 0)  -->
<svg version="1.1" id="Livello_1" xmlns="http://www.w3.org/2000/svg" xmlns:xlink="http://www.w3.org/1999/xlink" x="0px" y="0px"
	 viewBox="0 0 1947.44 316.18" style="enable-background:new 0 0 1947.44 316.18;" xml:space="preserve">
<style type="text/css">
	.st0{fill:#FFFFFF;}
	.st1{fill:#18609B;}
</style>
<g>
	<text transform="matrix(1 0 0 1 6153.0791 -608.2081)" style="font-family:'OpenSans-Semibold'; font-size:18px;">Domande frequenti</text>
	<text transform="matrix(1 0 0 1 5944.9746 -608.2081)" style="font-family:'OpenSans-Semibold'; font-size:18px;">Autocertificazione</text>
	<text transform="matrix(1 0 0 1 6379.144 -608.2081)" style="font-family:'OpenSans-Semibold'; font-size:18px;">GDPR</text>
</g>
<g>
	<g>
		<g>
			<g>
				<path class="st0" d="M459.08,224.04h-20.21v-55.87l-30.62,55.87h-12.4l-30.77-55.87v55.87h-20.21V121.48h18.22l38.88,70.87
					L441,121.48h18.06v102.56H459.08z"/>
				<path class="st0" d="M480.51,224.04V121.48h20.82v102.56L480.51,224.04L480.51,224.04z"/>
				<path class="st0" d="M597.76,224.04l-8.88-21.89h-45.31l-9.03,21.89h-22.5l44.39-102.56h19.44l44.39,102.56H597.76z
					 M566.23,146.74l-15,36.59h29.85L566.23,146.74z"/>
				<path class="st0" d="M716.23,178.12c0,14.39-4.03,26.02-12.09,34.9s-18.73,13.32-31.99,13.32c-13.57,0-24.49-4.44-32.76-13.32
					s-12.4-20.51-12.4-34.9v-56.64h20.82v56.64c0,8.57,2.22,15.44,6.66,20.59s10.33,7.73,17.68,7.73c6.94,0,12.55-2.58,16.84-7.73
					c4.29-5.15,6.43-12.02,6.43-20.59v-56.64h20.82L716.23,178.12L716.23,178.12z"/>
				<path class="st0" d="M784.04,140.31v83.73h-20.82v-83.73h-34.14v-18.83h89.09v18.83H784.04z"/>
				<path class="st0" d="M915.15,134.8c10.46,10.41,15.69,23.11,15.69,38.12c0,14.9-5.23,27.53-15.69,37.89
					s-23.24,15.54-38.35,15.54s-27.89-5.18-38.35-15.54c-10.46-10.36-15.69-22.99-15.69-37.89c0-15,5.23-27.71,15.69-38.12
					c10.46-10.41,23.24-15.61,38.35-15.61S904.69,124.39,915.15,134.8z M900.3,197.1c6.38-6.43,9.57-14.49,9.57-24.19
					s-3.19-17.81-9.57-24.34s-14.21-9.8-23.5-9.8s-17.12,3.27-23.5,9.8s-9.57,14.64-9.57,24.34s3.19,17.76,9.57,24.19
					c6.38,6.43,14.21,9.64,23.5,9.64C886.09,206.74,893.92,203.53,900.3,197.1z"/>
				<path class="st0" d="M1016.4,200.47c5.41-4.29,9.03-10.72,10.87-19.29l20.21,4.13c-2.45,12.86-8.32,22.91-17.6,30.16
					c-9.29,7.25-20.26,10.87-32.91,10.87c-15.1,0-27.86-5.15-38.27-15.46c-10.41-10.31-15.61-23.01-15.61-38.12
					c0-15,5.2-27.68,15.61-38.04c10.41-10.36,23.17-15.54,38.27-15.54c12.55,0,23.47,3.55,32.76,10.64
					c9.29,7.09,15.21,16.71,17.76,28.85l-20.21,5.66c-1.84-8.47-5.48-14.85-10.94-19.13s-11.92-6.43-19.36-6.43
					c-9.29,0-17.09,3.24-23.42,9.72c-6.33,6.48-9.49,14.57-9.49,24.26c0,9.69,3.19,17.81,9.57,24.34s14.16,9.8,23.34,9.8
					C1004.51,206.9,1010.99,204.75,1016.4,200.47z"/>
				<path class="st0" d="M1142.22,224.04h-77.92V121.48h77.61v18.83h-56.79v23.11h52.35v18.52h-52.35v23.27h57.1L1142.22,224.04
					L1142.22,224.04z"/>
				<path class="st0" d="M1226.87,224.04l-33.83-37.66h-10.87v37.66h-20.82V121.48h49.14c11.02,0,19.9,2.98,26.64,8.96
					c6.74,5.97,10.1,13.8,10.1,23.5c0,8.57-2.65,15.72-7.96,21.43s-12.45,9.24-21.43,10.56l34.44,38.12L1226.87,224.04
					L1226.87,224.04z M1210.49,167.56c4.8,0,8.67-1.25,11.63-3.75s4.44-5.79,4.44-9.87s-1.48-7.37-4.44-9.87s-6.84-3.75-11.63-3.75
					h-28.32v27.25h28.32V167.56z"/>
				<path class="st0" d="M1307.23,140.31v83.73h-20.82v-83.73h-34.14v-18.83h89.09v18.83H1307.23z"/>
				<path class="st0" d="M1355.14,224.04V121.48h20.82v102.56L1355.14,224.04L1355.14,224.04z"/>
				<path class="st0" d="M1418.2,165.41h49.75v18.83h-49.75v39.8h-20.82V121.48h76.54v18.83h-55.72L1418.2,165.41L1418.2,165.41z"/>
				<path class="st0" d="M1488.46,224.04V121.48h20.82v102.56L1488.46,224.04L1488.46,224.04z"/>
				<path class="st0" d="M1599.43,200.47c5.41-4.29,9.03-10.72,10.87-19.29l20.21,4.13c-2.45,12.86-8.32,22.91-17.6,30.16
					c-9.29,7.25-20.26,10.87-32.91,10.87c-15.1,0-27.86-5.15-38.27-15.46c-10.41-10.31-15.61-23.01-15.61-38.12
					c0-15,5.21-27.68,15.61-38.04c10.41-10.36,23.17-15.54,38.27-15.54c12.55,0,23.47,3.55,32.76,10.64
					c9.29,7.09,15.21,16.71,17.76,28.85l-20.21,5.66c-1.84-8.47-5.48-14.85-10.94-19.13s-11.92-6.43-19.36-6.43
					c-9.29,0-17.09,3.24-23.42,9.72c-6.33,6.48-9.49,14.57-9.49,24.26c0,9.69,3.19,17.81,9.57,24.34s14.16,9.8,23.34,9.8
					C1587.54,206.9,1594.02,204.75,1599.43,200.47z"/>
				<path class="st0" d="M1735.13,134.8c10.46,10.41,15.69,23.11,15.69,38.12c0,14.9-5.23,27.53-15.69,37.89
					s-23.24,15.54-38.35,15.54s-27.89-5.18-38.35-15.54s-15.69-22.99-15.69-37.89c0-15,5.23-27.71,15.69-38.12
					s23.24-15.61,38.35-15.61S1724.67,124.39,1735.13,134.8z M1720.28,197.1c6.38-6.43,9.57-14.49,9.57-24.19
					s-3.19-17.81-9.57-24.34s-14.21-9.8-23.5-9.8s-17.12,3.27-23.5,9.8s-9.57,14.64-9.57,24.34s3.19,17.76,9.57,24.19
					c6.38,6.43,14.21,9.64,23.5,9.64C1706.07,206.74,1713.9,203.53,1720.28,197.1z"/>
				<path class="st0" d="M1783.8,204.75c2.3,2.35,3.44,5.1,3.44,8.27c0,3.27-1.15,6.02-3.44,8.27c-2.3,2.25-5.18,3.37-8.65,3.37
					s-6.35-1.12-8.65-3.37s-3.44-5-3.44-8.27c0-3.16,1.15-5.92,3.44-8.27s5.18-3.52,8.65-3.52S1781.5,202.41,1783.8,204.75z"/>
				<path class="st0" d="M1804.08,224.04V121.48h20.82v102.56L1804.08,224.04L1804.08,224.04z"/>
				<path class="st0" d="M1893.63,140.31v83.73h-20.82v-83.73h-34.14v-18.83h89.09v18.83H1893.63z"/>
			</g>
		</g>
		<g>
			<g>
				<g>
					<path class="st0" d="M181.78,118.29c-4.19-4.18-10.98-4.18-15.17,0l-46.07,46.08l-22.38-22.38c-4.19-4.19-10.97-4.19-15.17,0
						c-4.18,4.18-4.18,10.98,0,15.16l29.96,29.96c4.19,4.18,10.98,4.18,15.16,0l53.66-53.66
						C185.97,129.27,185.97,122.48,181.78,118.29z M181.78,118.29c-4.19-4.18-10.98-4.18-15.17,0l-46.07,46.08l-22.38-22.38
						c-4.19-4.19-10.97-4.19-15.17,0c-4.18,4.18-4.18,10.98,0,15.16l29.96,29.96c4.19,4.18,10.98,4.18,15.16,0l53.66-53.66
						C185.97,129.27,185.97,122.48,181.78,118.29z M241.56,65.31L136.5,21.69c-2.63-1.09-5.59-1.09-8.22,0L23.22,65.31
						c-4,1.66-6.6,5.57-6.6,9.9v53.02c0,73.01,44.13,138.68,111.72,166.28c2.6,1.06,5.51,1.06,8.1,0
						c67.6-27.59,111.73-93.26,111.73-166.28V75.21C248.17,70.88,245.56,66.97,241.56,65.31z M226.73,128.24
						c0,62.07-36.46,119.2-94.34,144.71c-56.35-24.82-94.33-80.96-94.33-144.71V82.37l94.33-39.17l94.34,39.17V128.24z
						 M98.17,141.99c-4.19-4.19-10.97-4.19-15.17,0c-4.18,4.18-4.18,10.98,0,15.16l29.96,29.96c4.19,4.18,10.98,4.18,15.16,0
						l53.66-53.66c4.18-4.18,4.18-10.97,0-15.16c-4.19-4.18-10.98-4.18-15.17,0l-46.07,46.08L98.17,141.99z"/>
				</g>
			</g>
			<g>
				<path class="st1" d="M132.39,43.2L38.06,82.37v45.87c0,63.75,37.99,119.88,94.33,144.71c57.89-25.5,94.34-82.64,94.34-144.71
					V82.37L132.39,43.2z M181.78,133.45l-53.66,53.66c-4.18,4.18-10.97,4.18-15.16,0L83,157.15c-4.18-4.18-4.18-10.98,0-15.16
					c4.19-4.19,10.97-4.19,15.17,0l22.38,22.38l46.07-46.08c4.19-4.18,10.98-4.18,15.17,0
					C185.97,122.48,185.97,129.27,181.78,133.45z"/>
			</g>
		</g>
	</g>
</g>
</svg>
